<?xml version="1.0" standalone="no"?>
<!DOCTYPE svg PUBLIC "-//W3C//DTD SVG 20010904//EN"
 "http://www.w3.org/TR/2001/REC-SVG-20010904/DTD/svg10.dtd">
<svg version="1.0" xmlns="http://www.w3.org/2000/svg"
 width="512.000000pt" height="512.000000pt" viewBox="0 0 512.000000 512.000000"
 preserveAspectRatio="xMidYMid meet">

<g transform="translate(0.000000,512.000000) scale(0.100000,-0.100000)"
fill="#000000" stroke="none">
<path d="M2345 4869 c-491 -52 -981 -294 -1326 -656 -350 -367 -567 -826 -640
-1353 -18 -123 -18 -487 0 -610 112 -812 578 -1475 1271 -1809 426 -205 868
-260 1335 -166 406 82 822 313 1116 622 350 367 567 826 640 1353 18 123 18
487 0 610 -111 805 -572 1466 -1256 1802 -356 174 -757 247 -1140 207z m400
-743 c115 -54 198 -147 241 -271 14 -39 18 -83 19 -195 l0 -145 -72 -3 c-40
-2 -73 1 -73 5 0 4 -2 62 -3 128 -3 98 -8 129 -26 169 -45 103 -109 159 -208
182 -127 29 -248 -32 -316 -160 -18 -35 -23 -62 -27 -181 l-5 -140 -75 0 -75
0 0 140 c1 120 4 149 24 205 42 118 130 218 240 271 64 30 110 39 199 35 69
-3 94 -9 157 -40z m633 -750 c69 -36 98 -95 111 -222 6 -54 15 -142 20 -194 6
-52 24 -228 41 -390 50 -493 80 -778 96 -930 29 -277 29 -289 4 -344 -17 -34
-37 -57 -69 -77 l-45 -29 -971 0 -971 0 -45 29 c-47 29 -76 75 -85 134 -5 27
24 338 76 817 16 152 38 360 76 729 41 398 47 422 129 472 29 18 68 19 818 19
657 0 792 -2 815 -14z"/>
<path d="M2294 2671 c-11 -5 -33 -23 -47 -41 -21 -25 -27 -42 -27 -82 0 -44 4
-54 34 -84 29 -29 41 -34 80 -34 36 0 52 6 77 28 27 24 33 37 37 84 4 52 2 58
-29 92 -36 39 -86 54 -125 37z"/>
<path d="M2637 2593 c-4 -3 -7 -26 -7 -50 l0 -43 170 0 170 0 0 50 0 50 -163
0 c-90 0 -167 -3 -170 -7z"/>
<path d="M2051 2173 c-23 -27 -41 -51 -41 -55 0 -13 97 -91 162 -130 135 -80
322 -118 482 -98 162 20 285 72 413 174 29 22 52 46 53 53 0 6 -19 33 -43 59
l-43 47 -53 -41 c-110 -87 -287 -152 -416 -152 -128 0 -287 57 -401 144 -34
25 -64 46 -67 46 -3 0 -24 -21 -46 -47z"/>
</g>
</svg>
